<svg width="197" height="186" viewBox="0 0 197 186" fill="none" xmlns="http://www.w3.org/2000/svg">
<ellipse cx="98.5" cy="93" rx="98.5" ry="93" fill="black" fill-opacity="0.08"/>
<ellipse cx="55.338" cy="64.8099" rx="31.338" ry="30.8099" fill="#00487C"/>
<rect x="35.2676" y="84.3522" width="40.1408" height="52.1127" rx="7" fill="#00487C"/>
<rect x="40.9014" y="129.07" width="7.04225" height="31.338" fill="#00487C"/>
<rect x="58.1549" y="129.07" width="7.04225" height="31.338" fill="#00487C"/>
<path d="M63.4127 95.0413L68.2811 88.5875L104.925 115.574L99.3522 122.204L63.4127 95.0413Z" fill="#00487C"/>
<ellipse cx="136.458" cy="63.5775" rx="30.4577" ry="29.5775" fill="#00487C"/>
<path d="M120.831 86.7996C120.831 83.9371 123.23 81.6589 126.088 81.8063L150.243 83.0514C152.901 83.1884 154.986 85.3834 154.986 88.0447V131.113C154.986 133.874 152.747 136.113 149.986 136.113H125.831C123.07 136.113 120.831 133.874 120.831 131.113V86.7996Z" fill="#00487C"/>
<rect width="7.01167" height="31.5873" transform="matrix(0.875262 0.483649 -0.492567 0.870275 121.953 129.422)" fill="#00487C"/>
<path d="M121.109 95.5382L124.597 104.623L115.402 115.493L99.2746 122.105L100.937 113.049L110.276 109.695L121.109 95.5382Z" fill="#00487C"/>
<rect x="135.268" y="128.366" width="7.04225" height="31.6901" fill="#00487C"/>
</svg>
